<svg width="34" height="67" viewBox="0 0 34 67" fill="none" xmlns="http://www.w3.org/2000/svg">
    <path
        d="M26 16.5C26 18.1223 24.9909 19.723 23.0855 20.9657C21.1892 22.2024 18.5101 23 15.5 23C12.4899 23 9.81085 22.2024 7.91454 20.9657C6.00909 19.723 5 18.1223 5 16.5C5 14.8777 6.00909 13.277 7.91454 12.0343C9.81085 10.7976 12.4899 10 15.5 10C18.5101 10 21.1892 10.7976 23.0855 12.0343C24.9909 13.277 26 14.8777 26 16.5Z"
        stroke="current-color" stroke-width="2" />
    <path
        d="M21 5.5C21 6.53859 20.3071 7.64079 18.8425 8.53581C17.3951 9.42034 15.3319 10 13 10C10.6681 10 8.60491 9.42034 7.15749 8.53581C5.69291 7.64079 5 6.53859 5 5.5C5 4.46141 5.69291 3.35921 7.15749 2.46419C8.60491 1.57966 10.6681 1 13 1C15.3319 1 17.3951 1.57966 18.8425 2.46419C20.3071 3.35921 21 4.46141 21 5.5Z"
        stroke="current-color" stroke-width="2" />
    <path
        d="M27 28.5C27 30.1223 25.9909 31.723 24.0855 32.9657C22.1892 34.2024 19.5101 35 16.5 35C13.4899 35 10.8108 34.2024 8.91454 32.9657C7.00909 31.723 6 30.1223 6 28.5C6 26.8777 7.00909 25.277 8.91454 24.0343C10.8108 22.7976 13.4899 22 16.5 22C19.5101 22 22.1892 22.7976 24.0855 24.0343C25.9909 25.277 27 26.8777 27 28.5Z"
        stroke="current-color" stroke-width="2" />
    <path
        d="M27 43.5C27 45.3997 25.8216 47.2503 23.6451 48.6734C21.4775 50.0907 18.4238 51 15 51C11.5762 51 8.5225 50.0907 6.35486 48.6734C4.17835 47.2503 3 45.3997 3 43.5C3 41.6003 4.17835 39.7497 6.35486 38.3266C8.5225 36.9093 11.5762 36 15 36C18.4238 36 21.4775 36.9093 23.6451 38.3266C25.8216 39.7497 27 41.6003 27 43.5Z"
        stroke="current-color" stroke-width="2" />
    <path
        d="M33 58.5C33 60.2644 31.5437 62.1309 28.5736 63.616C25.6633 65.0711 21.5728 66 17 66C12.4272 66 8.33667 65.0711 5.4264 63.616C2.45631 62.1309 1 60.2644 1 58.5C1 56.7356 2.45631 54.8691 5.4264 53.384C8.33667 51.9289 12.4272 51 17 51C21.5728 51 25.6633 51.9289 28.5736 53.384C31.5437 54.8691 33 56.7356 33 58.5Z"
        stroke="current-color" stroke-width="2" />
</svg>